ply
format ascii 1.0
comment Created in Blender version 4.0.1
element vertex 32
property float x
property float y
property float z
property float nx
property float ny
property float nz
property uchar red
property uchar green
property uchar blue
property uchar alpha
element face 16
property list uchar uint vertex_indices
end_header
-0.5 -2.6077032e-07 -3.4942474 0 -1 7.54979e-08 254 254 254 255
0.5 -2.6077032e-07 -3.4942474 0 -1 7.54979e-08 254 254 254 255
-0.5 -1.1175871e-07 -1.4942474 0 -1 7.54979e-08 254 254 254 255
0.5 -1.1175871e-07 -1.4942474 0 -1 7.54979e-08 254 254 254 255
-0.5 1.1175871e-07 1.4942474 0 -1 7.54979e-08 254 254 254 255
0.5 1.1175871e-07 1.4942474 0 -1 7.54979e-08 254 254 254 255
-0.5 2.6077032e-07 3.4942474 0 -1 7.54979e-08 254 254 254 255
0.5 2.6077032e-07 3.4942474 0 -1 7.54979e-08 254 254 254 255
-3.4942477 3.7252903e-08 0.5 0 -1 7.54979e-08 254 254 254 255
-3.4942477 -3.7252903e-08 -0.5 0 -1 7.54979e-08 254 254 254 255
-1.4942477 3.7252903e-08 0.5 0 -1 7.54979e-08 254 254 254 255
-1.4942477 -3.7252903e-08 -0.49999988 0 -1 7.54979e-08 254 254 254 255
1.4942477 3.7252903e-08 0.5 0 -1 7.54979e-08 254 254 254 255
1.4942477 -3.7252903e-08 -0.5 0 -1 7.54979e-08 254 254 254 255
3.4942477 3.7252903e-08 0.5 0 -1 7.54979e-08 254 254 254 255
3.4942477 -3.7252903e-08 -0.49999988 0 -1 7.54979e-08 254 254 254 255
-0.97022915 0.2410962 -3.8735304 0 -1 7.54979e-08 0 0 0 255
0.029770851 0.2410962 -3.8735304 0 -1 7.54979e-08 0 0 0 255
-0.97022915 0.24109635 -1.8735304 0 -1 7.54979e-08 0 0 0 255
0.029770851 0.24109635 -1.8735304 0 -1 7.54979e-08 0 0 0 255
-0.97022915 0.24109659 1.1149645 0 -1 7.54979e-08 0 0 0 255
0.029770851 0.24109659 1.1149645 0 -1 7.54979e-08 0 0 0 255
-0.97022915 0.24109674 3.1149645 0 -1 7.54979e-08 0 0 0 255
0.029770851 0.24109674 3.1149645 0 -1 7.54979e-08 0 0 0 255
-3.9644768 0.2410965 0.120717034 0 -1 7.54979e-08 0 0 0 255
-3.9644768 0.24109644 -0.87928295 0 -1 7.54979e-08 0 0 0 255
-1.9644768 0.2410965 0.120717034 0 -1 7.54979e-08 0 0 0 255
-1.9644768 0.24109644 -0.87928283 0 -1 7.54979e-08 0 0 0 255
1.0240185 0.2410965 0.120717034 0 -1 7.54979e-08 0 0 0 255
1.0240185 0.24109644 -0.87928295 0 -1 7.54979e-08 0 0 0 255
3.0240185 0.2410965 0.120717034 0 -1 7.54979e-08 0 0 0 255
3.0240185 0.24109644 -0.87928283 0 -1 7.54979e-08 0 0 0 255
3 1 2 0
3 5 6 4
3 9 10 8
3 13 14 12
3 17 18 16
3 21 22 20
3 25 26 24
3 29 30 28
3 1 3 2
3 5 7 6
3 9 11 10
3 13 15 14
3 17 19 18
3 21 23 22
3 25 27 26
3 29 31 30
